<svg width="26" height="20" viewBox="0 0 26 20" fill="none" xmlns="http://www.w3.org/2000/svg">
<g id="Card">
<path id="Vector" d="M6.99999 13.6C7.66272 13.6 8.19999 13.0627 8.19999 12.4C8.19999 11.7372 7.66272 11.2 6.99999 11.2C6.33725 11.2 5.79999 11.7372 5.79999 12.4C5.79999 13.0627 6.33725 13.6 6.99999 13.6Z" stroke="#364AFF" stroke-width="2" stroke-linecap="round" stroke-linejoin="round"/>
<path id="Vector_2" d="M1 6.39998V2.31998C1 1.92233 1.32236 1.59998 1.72 1.59998H24.28C24.6777 1.59998 25 1.92233 25 2.31998V6.39998M1 6.39998V17.68C1 18.0777 1.32236 18.4 1.72 18.4H24.28C24.6777 18.4 25 18.0777 25 17.68V6.39998M1 6.39998H25" stroke="#364AFF" stroke-width="2" stroke-linecap="round" stroke-linejoin="round"/>
</g>
</svg>
