<svg width="261" height="36" viewBox="0 0 261 36" fill="none" xmlns="http://www.w3.org/2000/svg">
<g id="Logo">
    <path d="M16.544 28.04V29H3.168V6.6H4.128V28.04H16.544ZM20.0713 10.44H21.0312V29H20.0713V10.44ZM31.7105 29H27.1025V10.44H30.6225C33.1398 10.44 35.0385 10.8773 36.3185 11.752C37.6198 12.6267 38.2705 13.8213 38.2705 15.336C38.2705 17.1493 37.4705 18.4613 35.8705 19.272C37.0438 19.6773 37.9185 20.2853 38.4945 21.096C39.0705 21.8853 39.3585 22.8027 39.3585 23.848C39.3585 25.384 38.7185 26.632 37.4385 27.592C36.1798 28.5307 34.2705 29 31.7105 29ZM31.7105 28.04C33.5878 28.04 35.1665 27.6987 36.4465 27.016C37.7478 26.3333 38.3985 25.2773 38.3985 23.848C38.3985 23.1867 38.1532 22.472 37.6625 21.704C37.1718 20.9147 36.4145 20.3387 35.3905 19.976L33.7265 19.4L35.2625 18.6C35.7958 18.3227 36.2652 17.9067 36.6705 17.352C37.0972 16.776 37.3105 16.104 37.3105 15.336C37.3105 13.992 36.6705 13 35.3905 12.36C34.1105 11.72 32.5212 11.4 30.6225 11.4H28.0625V28.04H31.7105ZM52.0668 19.688L56.4188 29H55.3628L50.8828 19.4C50.9254 19.3787 51.1068 19.2933 51.4268 19.144C51.7681 18.9733 52.0028 18.856 52.1308 18.792C52.2588 18.7067 52.4721 18.568 52.7708 18.376C53.0694 18.184 53.2934 18.0027 53.4428 17.832C53.5921 17.64 53.7521 17.4267 53.9228 17.192C54.1148 16.936 54.2534 16.6587 54.3388 16.36C54.4241 16.04 54.4668 15.6987 54.4668 15.336C54.4668 13.992 53.8268 13 52.5468 12.36C51.2668 11.72 49.6774 11.4 47.7788 11.4H45.2188V29H44.2588V10.44H47.7788C50.2961 10.44 52.1948 10.8773 53.4748 11.752C54.7761 12.6267 55.4268 13.8213 55.4268 15.336C55.4268 16.3173 55.0961 17.192 54.4348 17.96C53.7734 18.7067 52.9841 19.2827 52.0668 19.688ZM62.4548 28.04H72.8868L66.3268 12.584L59.3508 29H58.3268L66.3268 10.12L74.3268 29H62.4548V28.04ZM85.7855 19.688L90.1375 29H89.0815L84.6015 19.4C84.6442 19.3787 84.8255 19.2933 85.1455 19.144C85.4868 18.9733 85.7215 18.856 85.8495 18.792C85.9775 18.7067 86.1908 18.568 86.4895 18.376C86.7882 18.184 87.0122 18.0027 87.1615 17.832C87.3108 17.64 87.4708 17.4267 87.6415 17.192C87.8335 16.936 87.9722 16.6587 88.0575 16.36C88.1428 16.04 88.1855 15.6987 88.1855 15.336C88.1855 13.992 87.5455 13 86.2655 12.36C84.9855 11.72 83.3962 11.4 81.4975 11.4H78.9375V29H77.9775V10.44H81.4975C84.0148 10.44 85.9135 10.8773 87.1935 11.752C88.4948 12.6267 89.1455 13.8213 89.1455 15.336C89.1455 16.3173 88.8148 17.192 88.1535 17.96C87.4922 18.7067 86.7028 19.2827 85.7855 19.688ZM95.5975 10.44H107.982L100.462 28.2V35.4H99.5015V28.2L91.9815 10.44H93.0055L99.9815 26.856L106.542 11.4H95.5975V10.44ZM129.073 18.248L128.593 17.416L130.385 16.392C131.857 15.5813 132.593 14.2907 132.593 12.52C132.593 9.21333 130.075 7.56 125.041 7.56H122.097V29H121.137V6.6H125.041C127.857 6.6 129.979 7.12267 131.409 8.168C132.838 9.192 133.553 10.6427 133.553 12.52C133.553 14.6533 132.657 16.2213 130.865 17.224L129.073 18.248ZM148.541 28.04V29H137.853V10.44H138.812V28.04H148.541ZM152.868 10.44V19.72C152.868 22.8987 153.369 25.1387 154.372 26.44C155.396 27.72 156.793 28.36 158.564 28.36C160.334 28.36 161.721 27.72 162.724 26.44C163.748 25.1387 164.26 22.8987 164.26 19.72V10.44H165.22V19.72C165.22 26.12 163.001 29.32 158.564 29.32C154.126 29.32 151.908 26.12 151.908 19.72V10.44H152.868ZM175.874 10.056C178.519 10.056 180.396 10.6427 181.506 11.816L180.866 12.52C179.842 11.5173 178.22 11.016 176.002 11.016C172.674 11.016 171.01 12.3387 171.01 14.984C171.01 16.008 171.415 16.8293 172.226 17.448C173.036 18.0453 174.018 18.504 175.17 18.824C176.343 19.144 177.506 19.4853 178.658 19.848C179.831 20.1893 180.823 20.7547 181.634 21.544C182.444 22.312 182.85 23.3253 182.85 24.584C182.85 26.056 182.242 27.2293 181.026 28.104C179.81 28.9787 178.05 29.416 175.746 29.416C174.615 29.416 173.495 29.2667 172.386 28.968C171.298 28.6693 170.487 28.232 169.954 27.656L170.594 26.952C171.682 27.9547 173.356 28.456 175.618 28.456C177.687 28.456 179.244 28.072 180.29 27.304C181.356 26.536 181.89 25.64 181.89 24.616C181.89 23.5493 181.484 22.6853 180.674 22.024C179.863 21.3627 178.871 20.872 177.698 20.552C176.546 20.2107 175.383 19.8693 174.21 19.528C173.058 19.1653 172.076 18.6107 171.266 17.864C170.455 17.1173 170.049 16.136 170.049 14.92C170.049 13.2773 170.594 12.0613 171.682 11.272C172.791 10.4613 174.188 10.056 175.874 10.056ZM205.01 18.248L204.53 17.416L206.322 16.392C207.794 15.5813 208.53 14.2907 208.53 12.52C208.53 9.21333 206.013 7.56 200.978 7.56H198.034V29H197.074V6.6H200.978C203.794 6.6 205.917 7.12267 207.346 8.168C208.776 9.192 209.49 10.6427 209.49 12.52C209.49 14.6533 208.594 16.2213 206.802 17.224L205.01 18.248ZM224.478 28.04V29H213.79V10.44H214.75V28.04H224.478ZM228.805 10.44V19.72C228.805 22.8987 229.306 25.1387 230.309 26.44C231.333 27.72 232.73 28.36 234.501 28.36C236.272 28.36 237.658 27.72 238.661 26.44C239.685 25.1387 240.197 22.8987 240.197 19.72V10.44H241.157V19.72C241.157 26.12 238.938 29.32 234.501 29.32C230.064 29.32 227.845 26.12 227.845 19.72V10.44H228.805ZM251.811 10.056C254.456 10.056 256.334 10.6427 257.443 11.816L256.803 12.52C255.779 11.5173 254.158 11.016 251.939 11.016C248.611 11.016 246.947 12.3387 246.947 14.984C246.947 16.008 247.352 16.8293 248.163 17.448C248.974 18.0453 249.955 18.504 251.107 18.824C252.28 19.144 253.443 19.4853 254.595 19.848C255.768 20.1893 256.76 20.7547 257.571 21.544C258.382 22.312 258.787 23.3253 258.787 24.584C258.787 26.056 258.179 27.2293 256.963 28.104C255.747 28.9787 253.987 29.416 251.683 29.416C250.552 29.416 249.432 29.2667 248.323 28.968C247.235 28.6693 246.424 28.232 245.891 27.656L246.531 26.952C247.619 27.9547 249.294 28.456 251.555 28.456C253.624 28.456 255.182 28.072 256.227 27.304C257.294 26.536 257.827 25.64 257.827 24.616C257.827 23.5493 257.422 22.6853 256.611 22.024C255.8 21.3627 254.808 20.872 253.635 20.552C252.483 20.2107 251.32 19.8693 250.147 19.528C248.995 19.1653 248.014 18.6107 247.203 17.864C246.392 17.1173 245.987 16.136 245.987 14.92C245.987 13.2773 246.531 12.0613 247.619 11.272C248.728 10.4613 250.126 10.056 251.811 10.056Z" fill="#011AFB"/>
</g>
</svg>